:SAMPLES-PER-SECOND 30
:FULLY-SPECIFIED
:DEGREES
201
root  -6.60092 40.871 -0.636913 176.917 -85.2964 -178.07
RightUpLeg  5.71707 -2.07374 -0.959862
RightLeg  -0.25917 -19.5951 0.502031
RightFoot  -1.84413 -0.304805 3.51791
RightToes  -3.11842e-008 1.75238e-005 3.56266e-009
Spine  -4.56084 5.37921 3.55662
Spine1  8.79883 5.68378 -0.799652
HEad  -19.2389 -7.31972 5.24099
LeftShoulder1  1.27928 -3.14865 -12.1284
LeftArm  52.4296 73.1953 2.90636
LeftForeArm  176.655 -62.9852 -161.325
LeftHand  -1.21563 -8.10761 10.7829
RightShoulder  2.76914 6.19296 22.3315
RightArm  9.90757 14.2271 54.955
RightForeArm  162.138 70.5665 151.499
RightHand  -1.09118 10.8163 -8.19479
LeftUpLeg  7.79198 3.03425 4.4435
LeftLeg  -1.84179 20.6508 -1.2438
LeftFoot  -1.77349 0.451383 -5.30108
LeftToes  4.78904e-008 1.4679e-008 1.35657e-009
202
root  -6.55713 40.875 -0.635907 175.938 -85.4377 -177.104
RightUpLeg  5.26621 -1.9488 -0.823466
RightLeg  0.572292 -19.8544 0.144479
RightFoot  -1.91223 -0.317418 3.69588
RightToes  -3.11842e-008 1.75238e-005 3.56266e-009
Spine  -3.96022 5.31075 4.77696
Spine1  8.21169 5.90108 -2.2596
HEad  -18.4547 -8.01245 4.86043
LeftShoulder1  1.40371 -3.59584 -12.718
LeftArm  49.9507 70.2161 0.0700637
LeftForeArm  177.771 -62.4022 -161.873
LeftHand  -1.2013 -8.14618 10.6355
RightShoulder  2.737 6.23699 21.8443
RightArm  9.82918 18.3656 57.2636
RightForeArm  159.794 70.5676 151.169
RightHand  -1.15861 10.751 -8.70847
LeftUpLeg  7.16365 3.398 4.78574
LeftLeg  -0.627503 19.9535 -1.09064
LeftFoot  -1.98054 0.470161 -5.56736
LeftToes  4.78904e-008 1.4679e-008 1.35657e-009
203
root  -6.47581 40.8767 -0.636182 177.975 -85.6196 -179.322
RightUpLeg  4.86529 -2.01329 -0.976776
RightLeg  1.53813 -19.9108 -0.275276
RightFoot  -2.08297 -0.327758 3.86944
RightToes  -3.11842e-008 1.75238e-005 3.56266e-009
Spine  -3.50065 4.92836 5.07782
Spine1  8.41129 5.61037 -2.61849
HEad  -19.165 -7.21448 4.04939
LeftShoulder1  1.70962 -4.00767 -15.9864
LeftArm  41.04 65.6055 -7.46971
LeftForeArm  176.914 -62.249 -161.904
LeftHand  -1.10522 -7.8593 10.0151
RightShoulder  2.75557 6.35626 21.6714
RightArm  10.3421 20.6892 58.3514
RightForeArm  157.413 70.8752 150.357
RightHand  -1.17649 11.4249 -8.50147
LeftUpLeg  6.36046 3.82627 4.98139
LeftLeg  1.16566 19.0661 -0.926478
LeftFoot  -2.16642 0.496351 -5.96901
LeftToes  4.78904e-008 1.4679e-008 1.35657e-009
204
root  -6.37901 40.8727 -0.639451 -177.677 -85.9979 176.286
RightUpLeg  4.32098 -2.14691 -1.25258
RightLeg  2.53668 -20.141 -0.713177
RightFoot  -2.39149 -0.32978 4.0027
RightToes  -3.11842e-008 1.75238e-005 3.56266e-009
Spine  -2.99237 4.29481 5.62982
Spine1  8.19677 5.28622 -3.97297
HEad  -20.0789 -5.99574 3.536
LeftShoulder1  2.13721 -4.61165 -19.8738
LeftArm  31.8167 59.2199 -14.9084
LeftForeArm  173.975 -62.9791 -161.066
LeftHand  -1.01809 -7.28705 9.65342
RightShoulder  3.00261 6.76552 23.0575
RightArm  10.9148 19.9203 57.7783
RightForeArm  155.988 71.0024 149.949
RightHand  -1.2188 10.9724 -9.01711
LeftUpLeg  5.48128 4.01189 4.91592
LeftLeg  2.6316 18.3634 -0.812744
LeftFoot  -2.19958 0.512336 -6.24453
LeftToes  4.78904e-008 1.4679e-008 1.35657e-009
205
root  -6.28649 40.8478 -0.647996 -174.756 -86.6112 173.335
RightUpLeg  3.98939 -2.26455 -1.3172
RightLeg  3.15723 -20.8115 -0.937342
RightFoot  -2.73904 -0.310772 3.88039
RightToes  -3.11842e-008 1.75238e-005 3.56266e-009
Spine  -3.00497 3.64575 6.10834
Spine1  8.53928 4.84425 -4.87784
HEad  -19.9852 -5.51474 2.74819
LeftShoulder1  2.52562 -5.06673 -23.2289
LeftArm  23.0206 50.3116 -22.4419
LeftForeArm  172.302 -64.488 -159.649
LeftHand  -1.07571 -7.38065 10.1064
RightShoulder  3.14185 6.97678 23.8339
RightArm  11.0016 16.5746 56.58
RightForeArm  155.456 71.1935 149.56
RightHand  -1.16509 10.6918 -8.7845
LeftUpLeg  4.55343 4.18216 4.96149
LeftLeg  4.11967 17.3314 -0.54448
LeftFoot  -2.43017 0.518664 -6.46534
LeftToes  4.78904e-008 1.4679e-008 1.35657e-009
206
root  -6.19138 40.8135 -0.680512 -163.813 -87.4594 162.228
RightUpLeg  4.18792 -2.47145 -1.43238
RightLeg  3.07268 -21.7648 -0.891805
RightFoot  -3.1031 -0.269331 3.44316
RightToes  -3.11842e-008 1.75238e-005 3.56266e-009
Spine  -2.74752 2.75182 6.33809
Spine1  8.53245 4.17692 -5.83525
HEad  -19.7941 -3.57931 2.18228
LeftShoulder1  2.85634 -5.34009 -26.1654
LeftArm  14.8831 40.2198 -29.7207
LeftForeArm  173.411 -66.4137 -157.99
LeftHand  -1.0828 -7.38492 10.1656
RightShoulder  3.37208 7.22385 25.358
RightArm  11.2333 11.0835 54.1293
RightForeArm  154.21 71.8562 148.234
RightHand  -1.20404 11.1593 -8.80563
LeftUpLeg  3.896 4.32384 4.87168
LeftLeg  5.212 16.0683 -0.277993
LeftFoot  -2.62871 0.510874 -6.49545
LeftToes  4.78904e-008 1.4679e-008 1.35657e-009
207
root  -6.11944 40.7742 -0.742497 -164.574 -89.2211 162.968
RightUpLeg  4.59298 -3.02695 -1.67409
RightLeg  2.53093 -23.0706 -0.358325
RightFoot  -3.41399 -0.225804 2.92297
RightToes  -3.11842e-008 1.75238e-005 3.56266e-009
Spine  -3.22705 1.59148 5.66759
Spine1  9.21435 3.07613 -5.8176
HEad  -20.1651 -1.93525 1.59524
LeftShoulder1  3.2806 -5.99719 -28.4835
LeftArm  8.21962 29.7964 -36.0862
LeftForeArm  173.508 -67.5898 -156.78
LeftHand  -1.12219 -7.42619 10.4896
RightShoulder  3.59522 7.49595 26.6731
RightArm  11.5967 3.91267 50.7871
RightForeArm  150.745 73.2427 144.961
RightHand  -1.42418 11.1556 -10.3473
LeftUpLeg  2.98232 4.45571 4.73368
LeftLeg  6.2566 14.1797 0.0768403
LeftFoot  -2.81684 0.501463 -6.4973
LeftToes  4.78904e-008 1.4679e-008 1.35657e-009
208
root  -6.00821 40.7161 -0.839858 -40.3688 -87.4539 39.1678
RightUpLeg  4.14112 -3.60262 -1.89663
RightLeg  2.95701 -25.5007 -0.357643
RightFoot  -3.90069 -0.221183 2.99375
RightToes  -3.11842e-008 1.75238e-005 3.56266e-009
Spine  -3.32259 0.0500327 3.60782
Spine1  9.30005 1.26413 -4.16175
HEad  -21.2771 -0.290824 0.630433
LeftShoulder1  3.64262 -6.60083 -30.0401
LeftArm  3.10844 19.0706 -42.2199
LeftForeArm  172.583 -68.0489 -156.146
LeftHand  -1.09621 -7.04565 10.5533
RightShoulder  3.5496 7.21787 27.1081
RightArm  12.3941 -4.26502 47.5954
RightForeArm  143.706 75.1843 138.922
RightHand  -1.19856 10.304 -9.23405
LeftUpLeg  0.484918 5.4092 4.43886
LeftLeg  8.91481 10.3454 0.697125
LeftFoot  -3.03996 0.508299 -6.73555
LeftToes  4.78904e-008 1.4679e-008 1.35657e-009
209
root  -5.8475 40.6105 -0.95463 -11.3393 -83.7818 10.7722
RightUpLeg  2.87583 -4.26302 -1.95258
RightLeg  4.84921 -28.5712 -0.912517
RightFoot  -4.68641 -0.220521 3.24231
RightToes  -3.11842e-008 1.75238e-005 3.56266e-009
Spine  -2.10372 -1.60608 1.53343
Spine1  7.84612 -0.785561 -2.07301
HEad  -22.5126 0.656436 -0.791552
LeftShoulder1  3.87738 -7.11418 -30.5157
LeftArm  0.608698 7.4077 -48.408
LeftForeArm  171.207 -68.9562 -154.909
LeftHand  -1.12245 -6.66091 11.1177
RightShoulder  3.4802 6.87795 27.5431
RightArm  12.1527 -14.4387 44.1239
RightForeArm  139.223 76.9223 132.272
RightHand  -1.10828 10.75 -8.34625
LeftUpLeg  -3.86855 6.90917 4.24563
LeftLeg  14.0574 4.84748 1.37559
LeftFoot  -3.51108 0.606261 -8.59826
LeftToes  4.78904e-008 1.4679e-008 1.35657e-009
210
root  -5.68528 40.464 -1.03966 -7.37408 -79.9359 7.46234
RightUpLeg  1.27598 -4.92267 -1.91542
RightLeg  7.47343 -31.7421 -2.06126
RightFoot  -5.67903 -0.209337 3.45234
RightToes  -3.11842e-008 1.75238e-005 3.56266e-009
Spine  0.419784 -2.83145 0.323853
Spine1  4.72171 -2.25514 -0.842884
HEad  -23.167 1.03087 -1.27116
LeftShoulder1  3.95631 -7.39495 -30.2927
LeftArm  1.43683 -3.37449 -53.6202
LeftForeArm  169.838 -69.6562 -153.822
LeftHand  -1.21143 -6.56057 12.063
RightShoulder  3.44852 6.63418 28.0495
RightArm  12.0335 -25.8865 39.9949
RightForeArm  136.035 77.7744 127.907
RightHand  -1.16636 11.0661 -8.59941
LeftUpLeg  -8.90024 6.27692 4.213
LeftLeg  20.7756 2.24283 1.31192
LeftFoot  -5.27532 0.696266 -12.3654
LeftToes  4.78904e-008 1.4679e-008 1.35657e-009
